<svg width="25" height="40" viewBox="0 0 444 591" fill="none" xmlns="http://www.w3.org/2000/svg">
<path d="M443.214 222.069C443.214 323.156 308.242 503.124 249.061 577.378C234.872 595.075 208.569 595.075 194.38 577.378C134.161 503.124 0.226562 323.156 0.226562 222.069C0.226562 99.422 99.3913 0 221.721 0C344.004 0 443.214 99.422 443.214 222.069Z" fill="#E79736"/>
<circle cx="220.043" cy="219.816" r="145.985" fill="white"/>
<path d="M225.008 185.121C222.038 185.375 218.461 185.922 214.26 186.743C210.058 187.544 206.169 188.56 202.573 189.752C198.977 190.944 195.303 192.605 191.571 194.716C187.819 196.827 184.633 199.25 181.995 201.947C179.357 204.644 177.207 208.024 175.526 212.109C173.846 216.174 173.005 220.649 173.005 225.535C173.005 230.831 173.924 235.54 175.8 239.703C177.657 243.866 180.138 247.129 183.265 249.553C186.373 251.976 189.91 253.871 193.818 255.259C197.727 256.646 201.87 257.272 206.169 257.096C210.469 256.92 214.67 256.256 218.755 255.083C222.819 253.93 226.65 252.074 230.207 249.553C233.763 247.032 236.675 244.041 238.962 240.622C239.802 241.911 240.545 242.869 241.209 243.494L242.909 245.234C244.043 246.387 245.782 248.087 248.127 250.334C250.453 252.582 252.837 254.77 255.221 256.92L275.624 237.397L274.451 236.439C273.611 235.795 272.614 234.876 271.481 233.645C270.347 232.433 269.214 231.085 268.119 229.639C267.005 228.192 266.048 226.492 265.246 224.577C264.445 222.662 264.035 220.805 264.035 219.007V167.649C264.035 165.676 263.664 163.546 262.921 161.239C262.159 158.953 260.83 156.452 258.876 153.755C256.921 151.058 254.498 148.635 251.606 146.524C248.694 144.413 244.824 142.615 239.958 141.169C235.112 139.723 229.679 139 223.699 139C217.582 139 211.895 139.723 206.58 141.13C201.284 142.557 196.75 144.452 192.958 146.837C189.187 149.221 185.943 151.976 183.246 155.123C180.549 158.269 178.536 161.552 177.227 164.972C175.917 168.392 175.253 171.851 175.253 175.349L201.674 177.675C202.749 174.47 204.195 171.695 205.974 169.311C207.772 166.926 209.472 165.207 211.016 164.132C212.579 163.057 214.26 162.197 216.038 161.552C217.836 160.907 219.048 160.575 219.673 160.497C220.298 160.438 220.787 160.419 221.158 160.419C226.376 160.419 229.992 161.963 232.024 165.031C233.294 166.887 233.92 169.701 233.92 173.493V184.554C230.949 184.671 227.979 184.866 225.008 185.121ZM233.939 214.806C233.939 218.05 233.509 221.001 232.669 223.6C230.871 229.287 227.451 232.863 222.429 234.309C218.051 235.599 213.889 234.954 209.941 232.394C205.739 229.658 203.648 225.789 203.648 220.805C203.648 216.916 204.625 213.594 206.58 210.819C208.534 208.064 211.133 205.992 214.397 204.624C217.66 203.256 220.846 202.279 223.972 201.712C227.08 201.126 230.422 200.774 233.939 200.657V214.806Z" fill="black"/>
<path d="M283.167 267.11C282.522 266.934 281.74 267.032 280.841 267.364C268.803 272.875 257.097 276.803 245.723 279.129C221.158 284.132 197.219 281.513 173.924 271.292C167.455 268.439 158.466 263.632 146.955 256.831C146.658 256.597 146.297 256.46 145.919 256.44C145.528 256.42 145.196 256.46 144.884 256.616C144.571 256.772 144.336 256.968 144.16 257.222C143.985 257.476 143.945 257.828 144.082 258.277C144.2 258.707 144.493 259.196 144.981 259.723C147.014 262.107 149.535 264.648 152.525 267.345C155.515 270.042 159.482 273.09 164.426 276.491C169.37 279.891 174.549 282.92 179.923 285.558C185.317 288.197 191.571 290.425 198.704 292.223C205.837 294.02 212.97 294.919 220.083 294.919C227.158 294.919 234.037 294.196 240.701 292.789C247.384 291.363 253.013 289.682 257.605 287.728C262.178 285.793 266.399 283.624 270.269 281.279C274.138 278.934 276.992 276.94 278.848 275.357C280.705 273.755 282.033 272.504 282.796 271.566C283.695 270.452 284.144 269.494 284.144 268.654C284.164 267.775 283.812 267.267 283.167 267.11ZM299.446 257.339C298.606 256.284 296.339 255.6 292.626 255.248C288.913 254.896 285.688 254.916 282.913 255.326C279.923 255.678 276.835 256.538 273.669 257.945C270.484 259.332 269.096 260.505 269.448 261.423L269.585 261.677L269.761 261.814L270.034 261.853H270.933C271.09 261.853 271.285 261.834 271.559 261.814C271.832 261.795 272.086 261.756 272.321 261.736C272.555 261.717 272.888 261.677 273.317 261.658C273.728 261.638 274.119 261.58 274.49 261.521C274.549 261.521 275.213 261.462 276.503 261.345C277.793 261.228 278.731 261.15 279.298 261.091C279.864 261.033 280.822 260.974 282.131 260.915C283.441 260.857 284.496 260.857 285.278 260.915C286.059 260.974 286.939 261.052 287.935 261.13C288.932 261.208 289.733 261.384 290.359 261.658C290.984 261.912 291.453 262.244 291.746 262.655C292.762 263.944 292.567 266.798 291.16 271.234C289.753 275.67 288.424 279.207 287.173 281.826C286.626 282.94 286.626 283.624 287.173 283.917C287.72 284.21 288.483 283.936 289.499 283.135C292.547 280.751 295.088 277.155 297.14 272.328C298.332 269.475 299.192 266.504 299.7 263.397C300.169 260.29 300.091 258.277 299.446 257.339Z" fill="#E79736"/>
</svg>
