<svg width="25" height="40" viewBox="0 0 444 591" fill="none" xmlns="http://www.w3.org/2000/svg"><path d="M443.214 222.069c0 101.087-134.972 281.055-194.153 355.309-14.189 17.697-40.492 17.697-54.681 0C134.161 503.124.227 323.156.227 222.069.227 99.422 99.39 0 221.72 0c122.283 0 221.493 99.422 221.493 222.069z" fill="#E79736"/><circle cx="220.043" cy="219.816" r="145.985" fill="#fff"/><path d="M225.008 185.121c-2.97.254-6.547.801-10.748 1.622-4.202.801-8.091 1.817-11.687 3.009s-7.27 2.853-11.002 4.964c-3.752 2.111-6.938 4.534-9.576 7.231-2.638 2.697-4.788 6.077-6.469 10.162-1.68 4.065-2.521 8.54-2.521 13.426 0 5.296.919 10.005 2.795 14.168 1.857 4.163 4.338 7.426 7.465 9.85 3.108 2.423 6.645 4.318 10.553 5.706 3.909 1.387 8.052 2.013 12.351 1.837 4.3-.176 8.501-.84 12.586-2.013 4.064-1.153 7.895-3.009 11.452-5.53 3.556-2.521 6.468-5.512 8.755-8.931.84 1.289 1.583 2.247 2.247 2.872l1.7 1.74c1.134 1.153 2.873 2.853 5.218 5.1 2.326 2.248 4.71 4.436 7.094 6.586l20.403-19.523-1.173-.958c-.84-.644-1.837-1.563-2.97-2.794a50.575 50.575 0 0 1-3.362-4.006c-1.114-1.447-2.071-3.147-2.873-5.062-.801-1.915-1.211-3.772-1.211-5.57v-51.358c0-1.973-.371-4.103-1.114-6.41-.762-2.286-2.091-4.787-4.045-7.484-1.955-2.697-4.378-5.12-7.27-7.231-2.912-2.111-6.782-3.909-11.648-5.355-4.846-1.446-10.279-2.169-16.259-2.169-6.117 0-11.804.723-17.119 2.13-5.296 1.427-9.83 3.322-13.622 5.707-3.771 2.384-7.015 5.139-9.712 8.286-2.697 3.146-4.71 6.429-6.019 9.849-1.31 3.42-1.974 6.879-1.974 10.377l26.421 2.326c1.075-3.205 2.521-5.98 4.3-8.364 1.798-2.385 3.498-4.104 5.042-5.179a22.193 22.193 0 0 1 5.022-2.58c1.798-.645 3.01-.977 3.635-1.055a15.904 15.904 0 0 1 1.485-.078c5.218 0 8.834 1.544 10.866 4.612 1.27 1.856 1.896 4.67 1.896 8.462v11.061c-2.971.117-5.941.312-8.912.567zm8.931 29.685c0 3.244-.43 6.195-1.27 8.794-1.798 5.687-5.218 9.263-10.24 10.709-4.378 1.29-8.54.645-12.488-1.915-4.202-2.736-6.293-6.605-6.293-11.589 0-3.889.977-7.211 2.932-9.986 1.954-2.755 4.553-4.827 7.817-6.195 3.263-1.368 6.449-2.345 9.575-2.912 3.108-.586 6.45-.938 9.967-1.055v14.149z" fill="#000"/><path d="M283.167 267.11c-.645-.176-1.427-.078-2.326.254-12.038 5.511-23.744 9.439-35.118 11.765-24.565 5.003-48.504 2.384-71.799-7.837-6.469-2.853-15.458-7.66-26.969-14.461a1.83 1.83 0 0 0-1.036-.391c-.391-.02-.723.02-1.035.176a1.85 1.85 0 0 0-.724.606c-.175.254-.215.606-.078 1.055.118.43.411.919.899 1.446 2.033 2.384 4.554 4.925 7.544 7.622 2.99 2.697 6.957 5.745 11.901 9.146a122.992 122.992 0 0 0 15.497 9.067c5.394 2.639 11.648 4.867 18.781 6.665 7.133 1.797 14.266 2.696 21.379 2.696 7.075 0 13.954-.723 20.618-2.13 6.683-1.426 12.312-3.107 16.904-5.061a98.447 98.447 0 0 0 12.664-6.449c3.869-2.345 6.723-4.339 8.579-5.922 1.857-1.602 3.185-2.853 3.948-3.791.899-1.114 1.348-2.072 1.348-2.912.02-.879-.332-1.387-.977-1.544zm16.279-9.771c-.84-1.055-3.107-1.739-6.82-2.091-3.713-.352-6.938-.332-9.713.078-2.99.352-6.078 1.212-9.244 2.619-3.185 1.387-4.573 2.56-4.221 3.478l.137.254.176.137.273.039h.899c.157 0 .352-.019.626-.039.273-.019.527-.058.762-.078.234-.019.567-.059.996-.078.411-.02.802-.078 1.173-.137.059 0 .723-.059 2.013-.176 1.29-.117 2.228-.195 2.795-.254.566-.058 1.524-.117 2.833-.176 1.31-.058 2.365-.058 3.147 0 .781.059 1.661.137 2.657.215.997.078 1.798.254 2.424.528.625.254 1.094.586 1.387.997 1.016 1.289.821 4.143-.586 8.579-1.407 4.436-2.736 7.973-3.987 10.592-.547 1.114-.547 1.798 0 2.091.547.293 1.31.019 2.326-.782 3.048-2.384 5.589-5.98 7.641-10.807a39.684 39.684 0 0 0 2.56-8.931c.469-3.107.391-5.12-.254-6.058z" fill="#E79736"/></svg>