<svg width="25" height="40" viewBox="0 0 443 591" fill="none" xmlns="http://www.w3.org/2000/svg">
<path d="M442.988 222.069C442.988 323.156 308.015 503.124 248.835 577.378C234.645 595.075 208.343 595.075 194.153 577.378C133.935 503.124 0 323.156 0 222.069C0 99.422 99.1647 0 221.494 0C343.777 0 442.988 99.422 442.988 222.069Z" fill="#5C8BD4"/>
<circle cx="219.816" cy="219.816" r="145.985" fill="white"/>
<path d="M172.411 183.594L172.411 266.23M172.411 183.594L145 183.594L145 266.23L172.411 266.23M172.411 183.594C190.677 156.049 236.363 142.28 250.064 146.87C261.036 150.538 257.686 166.76 254.637 174.415C286.613 174.415 295.75 188.184 295.75 224.916C295.75 261.624 286.621 279.999 240.936 279.999C204.387 279.999 180.024 270.82 172.411 266.23" stroke="#5C8BD4" stroke-width="14" stroke-linecap="round" stroke-linejoin="round"/>
<path d="M254.627 174.415C251.596 177.472 245.499 186.349 245.499 197.363L245.499 238.685M254.627 174.415C222.66 174.415 218.087 188.184 218.087 197.363" stroke="#5C8BD4" stroke-width="14" stroke-linecap="round" stroke-linejoin="round"/>
</svg>
