<svg width="25" height="40" viewBox="0 0 443 591" fill="none" xmlns="http://www.w3.org/2000/svg"><path d="M442.988 222.069c0 101.087-134.973 281.055-194.153 355.309-14.19 17.697-40.492 17.697-54.682 0C133.935 503.124 0 323.156 0 222.069 0 99.422 99.165 0 221.494 0c122.283 0 221.494 99.422 221.494 222.069z" fill="#5C8BD4"/><circle cx="219.816" cy="219.816" r="145.985" fill="#fff"/><path d="M172.411 183.594v82.636m0-82.636H145v82.636h27.411m0-82.636c18.266-27.545 63.952-41.314 77.653-36.724 10.972 3.668 7.622 19.89 4.573 27.545 31.976 0 41.113 13.769 41.113 50.501 0 36.708-9.129 55.083-54.814 55.083-36.549 0-60.912-9.179-68.525-13.769" stroke="#5C8BD4" stroke-width="14" stroke-linecap="round" stroke-linejoin="round"/><path d="M254.627 174.415c-3.031 3.057-9.128 11.934-9.128 22.948v41.322m9.128-64.27c-31.967 0-36.54 13.769-36.54 22.948" stroke="#5C8BD4" stroke-width="14" stroke-linecap="round" stroke-linejoin="round"/></svg>