<svg width="25" height="40" viewBox="0 0 471 618" fill="none" xmlns="http://www.w3.org/2000/svg">
<g filter="url(#filter0_d_2776_3662)">
<path d="M457.214 222.069C457.214 323.156 322.242 503.124 263.061 577.378C248.872 595.075 222.569 595.075 208.38 577.378C148.161 503.124 14.2266 323.156 14.2266 222.069C14.2266 99.422 113.391 0 235.721 0C358.004 0 457.214 99.422 457.214 222.069Z" fill="#553FAF"/>
<circle cx="234.043" cy="219.816" r="145.985" fill="white"/>
<path d="M235.72 215.831C246.846 215.831 257.516 211.411 265.383 203.544C273.25 195.677 277.67 185.007 277.67 173.881C277.67 162.755 273.25 152.085 265.383 144.218C257.516 136.351 246.846 131.932 235.72 131.932C224.595 131.932 213.925 136.351 206.058 144.218C198.19 152.085 193.771 162.755 193.771 173.881C193.771 185.007 198.19 195.677 206.058 203.544C213.925 211.411 224.595 215.831 235.72 215.831V215.831ZM235.72 229.814C220.886 229.814 206.659 223.921 196.17 213.432C185.681 202.942 179.788 188.715 179.788 173.881C179.788 159.047 185.681 144.82 196.17 134.331C206.659 123.841 220.886 117.948 235.72 117.948C250.555 117.948 264.781 123.841 275.271 134.331C285.76 144.82 291.653 159.047 291.653 173.881C291.653 188.715 285.76 202.942 275.271 213.432C264.781 223.921 250.555 229.814 235.72 229.814Z" fill="#553FAF"/>
<path d="M235.721 215.831C237.575 215.831 239.353 216.567 240.664 217.879C241.976 219.19 242.712 220.968 242.712 222.822V278.755C242.712 280.61 241.976 282.388 240.664 283.699C239.353 285.01 237.575 285.747 235.721 285.747C233.866 285.747 232.088 285.01 230.777 283.699C229.466 282.388 228.729 280.61 228.729 278.755V222.822C228.729 220.968 229.466 219.19 230.777 217.879C232.088 216.567 233.866 215.831 235.721 215.831V215.831Z" fill="#553FAF"/>
<path d="M207.754 245.783V259.976C182.794 263.975 165.804 272.617 165.804 278.755C165.804 286.991 196.372 299.73 235.721 299.73C275.069 299.73 305.637 286.991 305.637 278.755C305.637 272.603 288.647 263.975 263.687 259.976V245.783C296.268 250.579 319.62 263.542 319.62 278.755C319.62 298.052 282.061 313.713 235.721 313.713C189.38 313.713 151.821 298.052 151.821 278.755C151.821 263.528 175.173 250.579 207.754 245.783Z" fill="#553FAF"/>
</g>
<defs>
<filter id="filter0_d_2776_3662" x="0.802685" y="0" width="469.836" height="617.498" filterUnits="userSpaceOnUse" color-interpolation-filters="sRGB">
<feFlood flood-opacity="0" result="BackgroundImageFix"/>
<feColorMatrix in="SourceAlpha" type="matrix" values="0 0 0 0 0 0 0 0 0 0 0 0 0 0 0 0 0 0 127 0" result="hardAlpha"/>
<feOffset dy="13.4239"/>
<feGaussianBlur stdDeviation="6.71194"/>
<feComposite in2="hardAlpha" operator="out"/>
<feColorMatrix type="matrix" values="0 0 0 0 0 0 0 0 0 0 0 0 0 0 0 0 0 0 0.25 0"/>
<feBlend mode="normal" in2="BackgroundImageFix" result="effect1_dropShadow_2776_3662"/>
<feBlend mode="normal" in="SourceGraphic" in2="effect1_dropShadow_2776_3662" result="shape"/>
</filter>
</defs>
</svg>
