<svg width="25" height="40" viewBox="0 0 443 591" fill="none" xmlns="http://www.w3.org/2000/svg">
<path d="M442.988 222.069C442.988 323.156 308.015 503.124 248.835 577.378C234.645 595.075 208.343 595.075 194.153 577.378C133.935 503.124 0 323.156 0 222.069C0 99.422 99.1647 0 221.494 0C343.777 0 442.988 99.422 442.988 222.069Z" fill="#DC865D"/>
<circle cx="219.816" cy="219.816" r="145.985" fill="white"/>
<path d="M164.072 220.5L221.499 163.073L278.926 220.5L221.499 277.927L164.072 220.5Z" fill="#DC865D"/>
<path d="M317.619 209.926L232.081 124.374C229.275 121.573 225.472 120 221.507 120C217.542 120 213.739 121.573 210.933 124.374L125.374 209.926C122.573 212.732 121 216.535 121 220.5C121 224.465 122.573 228.268 125.374 231.074L210.926 316.626C213.732 319.427 217.535 321 221.5 321C225.465 321 229.268 319.427 232.074 316.626L317.626 231.074C320.427 228.268 322 224.465 322 220.5C322 216.535 320.427 212.732 317.626 209.926H317.619ZM221.5 306.899L135.108 220.5L221.5 134.101L307.899 220.5L221.5 306.899Z" fill="#DC865D"/>
</svg>
