<svg width="25" height="40" viewBox="0 0 94 151" fill="none" xmlns="http://www.w3.org/2000/svg"><path d="M93.998 59.62c0 21.45-28.64 59.637-41.198 75.393a7.384 7.384 0 0 1-11.603 0C28.42 119.257 0 81.069 0 59.62c0-26.025 21.042-47.121 46.999-47.121 25.947 0 46.998 21.096 46.998 47.12z" fill="#C00"/><path d="M46.642 90.117c17.108 0 30.977-13.869 30.977-30.976 0-17.108-13.869-30.977-30.977-30.977-17.107 0-30.976 13.869-30.976 30.977 0 17.107 13.869 30.976 30.976 30.976z" fill="#fff"/><g clip-path="url(#a)" fill="#C00"><path d="M46.864 59.329c3.666 0 6.518-2.987 6.518-6.654 0-3.665-2.987-6.517-6.654-6.517-3.666 0-6.517 2.987-6.517 6.517 0 3.667 2.987 6.654 6.653 6.654zm-.136-10.455c.136 0 .136 0 0 0a3.94 3.94 0 0 1 3.938 3.937c0 2.173-1.765 3.802-3.938 3.802-2.172 0-3.801-1.765-3.801-3.802 0-2.172 1.765-3.937 3.801-3.937zM66.96 58.515c-2.58-2.308-5.975-3.53-9.505-3.394H56.37c-.272 1.086-.679 2.036-1.222 2.85.815-.135 1.494-.135 2.308-.135 2.58-.136 5.16.679 7.196 2.173v9.776h2.716V58.922l-.407-.407zM54.332 46.43c.679-1.628 2.58-2.443 4.345-1.764 1.63.679 2.444 2.58 1.765 4.345-.543 1.222-1.765 2.036-2.987 2.036-.272 0-.679 0-.95-.135.135.678.135 1.357.135 1.9v.815c.272 0 .543.136.815.136 3.394 0 6.11-2.716 6.11-5.974 0-3.395-2.716-6.11-5.974-6.11-2.173 0-4.074 1.086-5.16 2.987.679.407 1.358.95 1.901 1.765zM38.853 58.104c-.543-.815-.95-1.765-1.222-2.852h-1.086a13.97 13.97 0 0 0-9.505 3.26l-.407.406v10.863h2.716v-9.776c2.172-1.494 4.616-2.309 7.196-2.173.814 0 1.63.136 2.308.272zM36.545 53.626c.272 0 .543 0 .815-.136v-.814c0-.68 0-1.358.136-1.901-.272.136-.68.136-.95.136-1.766 0-3.26-1.494-3.26-3.26 0-1.764 1.494-3.258 3.26-3.258a3.43 3.43 0 0 1 3.122 2.037c.543-.679 1.358-1.358 2.037-1.901-1.765-2.851-5.431-3.802-8.283-2.037-2.851 1.765-3.801 5.431-2.036 8.283 1.086 1.765 2.987 2.851 5.16 2.851zM57.998 66.663l-.272-.407c-2.715-2.987-6.517-4.753-10.59-4.617-4.074-.136-8.011 1.63-10.727 4.617l-.271.407v10.319c0 1.222.95 2.308 2.308 2.308h17.38c1.221 0 2.308-1.086 2.308-2.308v-10.32h-.136zm-2.716 9.912H38.853v-8.962c2.173-2.172 5.16-3.258 8.283-3.258 2.987-.136 5.974 1.086 8.146 3.258v8.962z"/></g><defs><clipPath id="a"><path fill="#fff" transform="translate(22.56 35.84)" d="M0 0h48.88v48.88H0z"/></clipPath></defs></svg>