<svg width="25" height="40"  viewBox="0 0 94 151" fill="none" xmlns="http://www.w3.org/2000/svg">
<path d="M93.9975 59.6198C93.9975 81.0694 65.3576 119.257 52.8002 135.013C49.7892 138.768 44.2082 138.768 41.1973 135.013C28.4196 119.257 0 81.0694 0 59.6198C0 33.5953 21.0417 12.499 46.9987 12.499C72.9459 12.499 93.9975 33.5953 93.9975 59.6198Z" fill="#CC0000"/>
<path d="M46.6425 90.1171C63.7504 90.1171 77.619 76.2484 77.619 59.1406C77.619 42.0327 63.7504 28.1641 46.6425 28.1641C29.5347 28.1641 15.666 42.0327 15.666 59.1406C15.666 76.2484 29.5347 90.1171 46.6425 90.1171Z" fill="white"/>
<g clip-path="url(#clip0_503_31)">
<path d="M46.8643 59.3286C50.5303 59.3286 53.3816 56.3415 53.3816 52.6755C53.3816 49.0095 50.3945 46.1582 46.7285 46.1582C43.0625 46.1582 40.2112 49.1453 40.2112 52.6755C40.2112 56.3415 43.1983 59.3286 46.8643 59.3286ZM46.7285 48.8738C46.8643 48.8738 46.8643 48.8738 46.7285 48.8738C48.901 48.8738 50.6661 50.6389 50.6661 52.8113C50.6661 54.9838 48.901 56.6131 46.7285 56.6131C44.5561 56.6131 42.9267 54.848 42.9267 52.8113C42.9267 50.6389 44.6918 48.8738 46.7285 48.8738V48.8738Z" fill="#CC0000"/>
<path d="M66.9596 58.515C64.3799 56.2068 60.9854 54.9848 57.4552 55.1206H56.369C56.0974 56.2068 55.6901 57.1572 55.147 57.9719C55.9616 57.8361 56.6405 57.8361 57.4552 57.8361C60.035 57.7003 62.6148 58.515 64.6514 60.0086V69.7846H67.367V58.9223L66.9596 58.515Z" fill="#CC0000"/>
<path d="M54.332 46.4309C55.0109 44.8016 56.9118 43.9869 58.6769 44.6658C60.3063 45.3447 61.1209 47.2456 60.442 49.0107C59.8989 50.2327 58.6769 51.0474 57.4549 51.0474C57.1834 51.0474 56.776 51.0474 56.5045 50.9116C56.6403 51.5905 56.6403 52.2694 56.6403 52.8125V53.6272C56.9118 53.6272 57.1834 53.7629 57.4549 53.7629C60.8494 53.7629 63.5649 51.0474 63.5649 47.7887C63.5649 44.3943 60.8494 41.6787 57.5907 41.6787C55.4183 41.6787 53.5174 42.7649 52.4312 44.6658C53.11 45.0732 53.7889 45.6163 54.332 46.4309V46.4309Z" fill="#CC0000"/>
<path d="M38.8531 58.1038C38.3099 57.2891 37.9026 56.3386 37.6311 55.2524H36.5448C33.0146 55.1166 29.6202 56.3386 27.0404 58.5111L26.6331 58.9184V69.7806H29.3486V60.0046C31.5211 58.5111 33.9651 57.6964 36.5448 57.8322C37.3595 57.8322 38.1742 57.968 38.8531 58.1038Z" fill="#CC0000"/>
<path d="M36.5452 53.6261C36.8167 53.6261 37.0883 53.6261 37.3598 53.4903V52.6756C37.3598 51.9967 37.3598 51.3178 37.4956 50.7747C37.224 50.9105 36.8167 50.9105 36.5452 50.9105C34.78 50.9105 33.2865 49.417 33.2865 47.6518C33.2865 45.8867 34.78 44.3932 36.5452 44.3932C37.9029 44.3932 39.1249 45.2078 39.668 46.4298C40.2112 45.751 41.0258 45.0721 41.7047 44.529C39.9396 41.6776 36.2736 40.7272 33.4223 42.4923C30.5709 44.2574 29.6205 47.9234 31.3856 50.7747C32.4718 52.5398 34.3727 53.6261 36.5452 53.6261V53.6261Z" fill="#CC0000"/>
<path d="M57.9979 66.6629L57.7264 66.2556C55.0108 63.2685 51.209 61.5034 47.1357 61.6391C43.0624 61.5034 39.1248 63.2685 36.4093 66.2556L36.1377 66.6629V76.982C36.1377 78.204 37.0881 79.2903 38.4459 79.2903H55.8255C57.0475 79.2903 58.1337 78.204 58.1337 76.982V66.6629H57.9979ZM55.2824 76.5747H38.8533V67.6134C41.0257 65.4409 44.0128 64.3547 47.1357 64.3547C50.1228 64.2189 53.1099 65.4409 55.2824 67.6134V76.5747Z" fill="#CC0000"/>
</g>
<defs>
<clipPath id="clip0_503_31">
<rect width="48.88" height="48.88" fill="white" transform="translate(22.5601 35.8408)"/>
</clipPath>
</defs>
</svg>
