<svg version="1.1" xmlns="http://www.w3.org/2000/svg" width="40" height="65"  viewBox="0 0 1000 1000" enable-background="new 0 0 1000 1000" xml:space="preserve">
<g><g transform="translate(0.000000,512.000000) scale(0.100000,-0.100000)"><path d="M4711.9,5015.1c-36.5-3.8-149.7-17.3-249.5-28.8c-230.3-26.9-644.8-130.5-871.3-220.7C2416.7,4301.2,1637.5,3289.8,1461,1998.3c-40.3-286-40.3-846.3,0-1115c63.3-433.7,174.6-781.1,393.4-1211c222.6-441.4,472.1-800.3,1235.9-1782.8c792.6-1021,1253.2-1658.1,1675.4-2318.3c122.8-193.8,228.4-351.2,234.1-351.2c5.8,0,34.5,40.3,65.3,92.1c32.6,49.9,180.4,276.4,330.1,502.8c433.7,658.2,756.1,1097.7,1541,2109.1c740.8,951.9,988.3,1310.7,1218.6,1763.6c299.4,594.9,414.5,1080.5,414.5,1752.1c-1.9,635.2-111.3,1151.5-355,1660c-487.5,1013.3-1441.2,1698.4-2610,1878.8C5416.2,5007.4,4844.3,5030.4,4711.9,5015.1z M6059.1,2537.5c792.6-792.6,1013.3-1022.9,1013.3-1061.3c0-32.6-38.4-84.4-119-167c-94-95.9-132.4-120.9-178.5-120.9c-49.9,0-161.2,103.6-892.4,834.8C5235.8,2668,5036.2,2858,4999.8,2858c-36.5,0-236-190-882.8-834.8c-723.5-723.5-842.5-834.8-892.4-834.8c-74.8,0-297.5,214.9-297.5,287.9c0,69.1,2001.6,2072.6,2072.6,2072.6C5038.1,3548.9,5262.7,3334,6059.1,2537.5z M5857.6,1779.5l792.6-792.6V205.8c0-758-1.9-784.9-38.4-821.4c-36.5-36.4-63.3-38.4-514.3-38.4c-433.7,0-479.8,3.8-508.6,34.5c-26.9,28.8-32.6,113.2-36.5,612.2c-5.8,537.4-7.7,579.6-42.2,618c-34.6,38.4-53.8,40.3-510.5,40.3c-456.7,0-475.9-1.9-510.5-40.3c-34.5-38.4-36.5-80.6-42.2-618c-3.8-499-9.6-583.4-36.5-612.2c-28.8-30.7-74.8-34.5-508.6-34.5c-451,0-477.8,1.9-514.3,38.4c-36.5,36.5-38.4,63.3-38.4,821.4v781.1l792.6,792.6c736.9,735,796.4,790.7,857.8,790.7C5061.2,2570.2,5120.7,2514.5,5857.6,1779.5z"/></g></g>
</svg>