<svg width="25" height="40" viewBox="0 0 443 591" fill="none" xmlns="http://www.w3.org/2000/svg">
<path d="M442.988 222.069C442.988 323.156 308.015 503.124 248.835 577.378C234.645 595.075 208.343 595.075 194.153 577.378C133.935 503.124 0 323.156 0 222.069C0 99.422 99.1647 0 221.494 0C343.777 0 442.988 99.422 442.988 222.069Z" fill="#2C623F"/>
<circle cx="219.816" cy="219.816" r="145.985" fill="white"/>
<path d="M229.581 170.309C228.766 170.161 224.828 169.501 220.207 169.501C215.586 169.501 211.648 170.161 210.832 170.309C210.367 170.386 210.18 169.936 210.537 169.664C210.864 169.431 220.207 162.317 220.207 162.317L229.868 169.664C230.233 169.936 230.055 170.394 229.581 170.309V170.309ZM213.442 216.481C213.442 216.481 212.945 216.66 212.821 217.094C214.778 218.593 216.122 222.018 220.207 222.018C224.292 222.018 225.643 218.601 227.593 217.087C227.469 216.652 226.971 216.481 226.971 216.481C226.971 216.481 224.408 217.079 220.207 217.079C215.997 217.079 213.442 216.481 213.442 216.481V216.481ZM220.207 210.718C219.073 210.718 218.824 210.291 218.048 210.291C217.318 210.291 215.881 210.881 215.57 211.425C215.59 211.701 215.705 211.962 215.896 212.163C217.543 212.403 218.296 213.328 220.207 213.328C222.125 213.328 222.871 212.403 224.525 212.163C224.711 211.959 224.823 211.7 224.843 211.425C224.533 210.881 223.104 210.299 222.366 210.291C221.589 210.291 221.341 210.718 220.207 210.718V210.718ZM313.305 228.348C313.187 230.563 312.99 232.773 312.715 234.973C302.152 236.721 298.385 227.315 287.574 227.789C288.219 230.08 288.739 232.418 289.151 234.802C298.067 234.802 301.655 243.136 311.581 241.909C311.06 244.456 310.431 246.973 309.701 249.442C301.857 250.219 299.1 242.421 290.021 242.639C290.098 243.928 290.137 245.233 290.137 246.553L290.098 248.728L307.728 255.454C306.806 257.951 305.777 260.407 304.645 262.816C299.348 262.529 297.523 255.733 289.461 256.269C289.22 258.001 288.914 259.724 288.545 261.434C295.543 260.945 297.049 267.391 302.059 267.911C300.782 270.238 299.409 272.511 297.942 274.723C294.976 273.13 292.397 268.331 286.759 268.035C287.342 266.246 287.85 264.432 288.281 262.599C283.279 262.599 277.563 260.657 272.779 256.292C274.332 247.438 260.601 238.437 260.601 231.96C260.601 224.923 264.158 221.032 264.158 211.549C264.158 204.505 260.741 196.87 255.584 191.651C254.625 190.673 253.554 189.813 252.391 189.088C257.129 194.944 260.764 201.895 260.764 209.941C260.764 218.873 256.609 223.587 256.609 231.835C256.609 240.076 268.67 247.213 268.67 255.71C268.67 259.05 267.598 262.311 264.072 268.734C269.486 274.14 276.538 277.091 281.081 277.091C282.557 277.091 283.357 276.641 283.885 275.484C284.341 274.482 284.773 273.469 285.182 272.447C290.075 272.633 292.327 277.084 295.038 278.862C293.547 280.866 291.986 282.792 290.347 284.656C288.529 282.644 286.083 279.258 282.503 278.318C281.865 279.562 281.192 280.787 280.483 281.992C283.559 282.831 285.664 285.937 287.294 287.98C285.536 289.803 283.704 291.555 281.804 293.23C280.615 291.374 278.759 289.029 276.678 287.763C275.913 288.796 275.118 289.806 274.293 290.792C276.056 291.995 277.617 294.147 278.635 295.902C276.437 297.665 274.161 299.343 271.8 300.911C270.635 291.436 257.712 284.951 261.199 273.961C260.057 275.903 258.69 278.318 258.69 281.239C258.69 289.192 267.156 295.498 267.839 303.404C266.084 304.453 264.282 305.439 262.457 306.379C262.146 297.688 253.184 288.182 253.184 281.06C253.184 273.099 263.606 265.1 263.606 255.71C263.606 246.312 251.576 239.796 251.576 231.548C251.576 223.3 256.694 218.555 256.694 207.976C256.694 200.233 253.013 192.397 247.328 187.395C246.364 186.524 245.294 185.778 244.143 185.174C249.502 191.605 252.609 197.445 252.609 206.291C252.609 216.232 246.745 221.747 246.745 231.486C246.745 241.225 258.55 246.631 258.55 255.718C258.55 264.789 247.561 272.431 247.561 281.759C247.561 290.24 257.246 298.706 257.393 308.763C255.269 309.689 253.111 310.534 250.924 311.295C252.158 301.129 241.254 290.644 241.254 282.349C241.254 273.286 252.648 265.488 252.648 255.71C252.648 245.924 241.068 241.381 241.068 231.338C241.068 221.304 248.174 215.751 248.174 204.66C248.151 200.556 247.194 196.511 245.374 192.832C243.555 189.152 240.921 185.936 237.674 183.426L237.278 183.131C236.687 182.696 236.206 183.217 236.625 183.737C241.037 189.251 243.398 194.82 243.398 203.076C243.398 213.211 235.227 221.452 235.227 231.284C235.227 242.88 246.194 246.196 246.194 255.71C246.194 265.224 234.435 272.835 234.435 282.932C234.435 292.298 245.565 302.698 243.654 313.509C241.411 314.093 239.147 314.59 236.866 315C238.955 301.541 228.035 291.871 228.035 283.064C228.035 273.526 240.213 265.03 240.213 255.71C240.213 246.926 231.476 244.052 230.327 235.059C230.171 233.831 229.185 232.923 227.826 233.148C226.047 233.474 223.772 234.639 220.199 234.639C216.626 234.639 214.351 233.474 212.572 233.148C211.221 232.923 210.234 233.831 210.079 235.059C208.93 244.052 200.185 246.918 200.185 255.718C200.185 265.03 212.363 273.526 212.363 283.056C212.363 291.871 201.45 301.541 203.532 315C201.252 314.587 198.987 314.089 196.744 313.509C194.833 302.698 205.963 292.306 205.963 282.932C205.963 272.835 194.204 265.224 194.204 255.71C194.204 246.196 205.171 242.88 205.171 231.284C205.171 221.452 197 213.219 197 203.068C197 194.82 199.361 189.243 203.78 183.729C204.192 183.217 203.711 182.696 203.12 183.131L202.732 183.426C199.486 185.934 196.854 189.148 195.036 192.824C193.218 196.501 192.262 200.543 192.239 204.645C192.239 215.735 199.346 221.288 199.346 231.331C199.346 241.365 187.758 245.916 187.758 255.702C187.758 265.473 199.152 273.27 199.152 282.342C199.152 290.636 188.255 301.121 189.49 311.288C187.302 310.525 185.144 309.68 183.02 308.756C183.168 298.69 192.845 290.225 192.845 281.743C192.845 272.424 181.863 264.774 181.863 255.702C181.863 246.623 193.661 241.21 193.661 231.47C193.661 221.739 187.805 216.217 187.805 206.276C187.805 197.422 190.911 191.597 196.27 185.166C195.118 185.764 194.048 186.508 193.086 187.38C190.19 189.979 187.863 193.149 186.251 196.691C184.639 200.233 183.777 204.07 183.719 207.961C183.719 218.539 188.838 223.284 188.838 231.533C188.838 239.788 176.807 246.289 176.807 255.694C176.807 265.092 187.23 273.092 187.23 281.045C187.23 288.174 178.259 297.681 177.957 306.364C176.13 305.432 174.335 304.44 172.574 303.389C173.25 295.49 181.723 289.176 181.723 281.223C181.723 278.311 180.356 275.887 179.215 273.954C182.694 284.936 169.771 291.428 168.606 300.896C166.253 299.33 163.973 297.658 161.771 295.886C162.788 294.139 164.349 291.98 166.12 290.784C165.291 289.797 164.493 288.784 163.728 287.747C161.647 289.013 159.791 291.366 158.602 293.215C156.703 291.541 154.871 289.792 153.111 287.972C154.742 285.922 156.855 282.815 159.93 281.977C159.218 280.772 158.542 279.547 157.903 278.303C154.331 279.25 151.876 282.637 150.059 284.648C148.422 282.779 146.86 280.847 145.376 278.854C148.094 277.068 150.331 272.618 155.232 272.431C155.643 273.449 156.07 274.466 156.529 275.46C157.057 276.625 157.849 277.076 159.325 277.076C163.876 277.076 170.92 274.124 176.333 268.719C172.815 262.304 171.751 259.042 171.751 255.694C171.751 247.198 183.805 240.068 183.805 231.82C183.805 223.58 179.65 218.865 179.65 209.934C179.65 201.88 183.284 194.936 188.022 189.073C186.857 189.796 185.783 190.657 184.822 191.636C179.673 196.87 176.248 204.505 176.248 211.541C176.248 221.024 179.813 224.923 179.813 231.96C179.813 238.437 166.081 247.439 167.635 256.285C162.843 260.649 157.127 262.599 152.125 262.599C152.559 264.43 153.064 266.244 153.639 268.035C148.009 268.331 145.438 273.13 142.455 274.715C140.988 272.506 139.615 270.236 138.339 267.911C143.356 267.383 144.863 260.945 151.869 261.434C151.499 259.724 151.194 258.001 150.952 256.269C142.89 255.725 141.058 262.529 135.761 262.816C134.631 260.407 133.605 257.95 132.685 255.454L150.308 248.72L150.269 246.545C150.269 245.225 150.308 243.92 150.377 242.623C141.306 242.414 138.541 250.203 130.697 249.435C129.97 246.95 129.345 244.437 128.825 241.901C138.735 243.12 142.339 234.787 151.255 234.795C151.654 232.428 152.177 230.084 152.824 227.774C142.013 227.308 138.238 236.705 127.691 234.958C127.414 232.76 127.217 230.553 127.101 228.34C139.372 229.707 143.962 219.626 155.138 220.861C156.185 218.203 157.404 215.617 158.789 213.118C144.785 210.656 140.032 222.368 127 220.574C128.414 170.309 169.6 130 220.207 130C270.814 130 312 170.309 313.406 220.582C300.366 222.384 295.62 210.671 281.617 213.126C282.992 215.611 284.219 218.205 285.267 220.869C296.436 219.634 301.034 229.723 313.305 228.348V228.348ZM180.131 189.243C173.266 186.44 164.955 187.084 157.857 191.651C156.754 185.042 153.173 179.17 148.071 175.636C147.364 175.147 146.634 175.605 146.696 176.429C147.776 190.377 139.613 202.493 129.586 213.149C139.924 216.256 148.723 202.944 162.128 207.588C166.949 200.417 173.052 194.198 180.131 189.243V189.243ZM220.207 180.801C211.555 180.801 204.301 185.694 202.406 192.024C202.25 192.505 202.452 192.824 203.012 192.568C204.565 191.869 206.343 191.535 208.27 191.535C211.796 191.535 214.91 192.832 216.751 195.084C217.558 197.771 217.628 201.662 216.712 203.876C215.259 203.55 214.731 202.431 213.31 202.431C211.897 202.431 210.794 203.425 208.386 203.425C205.978 203.425 205.699 202.291 204.114 202.291C202.25 202.291 201.909 204.21 201.909 206.369C201.909 216.015 210.778 229.28 220.207 229.28C229.628 229.28 238.489 216.015 238.489 206.369C238.489 204.202 238.047 202.353 236.105 202.097C234.959 203.039 233.5 203.514 232.02 203.425C229.612 203.425 228.952 202.431 227.531 202.431C225.822 202.431 225.993 206.043 223.958 206.237C222.599 202.983 222.537 198.804 223.663 195.084C225.504 192.832 228.61 191.535 232.144 191.535C234.07 191.535 235.849 191.876 237.394 192.568C237.953 192.824 238.148 192.505 238.008 192.024C236.113 185.702 228.859 180.801 220.207 180.801V180.801ZM233.985 194.641C231.911 194.641 229.48 195.278 227.95 196.979C227.784 197.509 227.806 198.079 228.012 198.594C231.779 197.305 235.095 197.251 236.703 199.045C237.557 198.268 237.829 197.569 237.829 196.762C237.829 195.511 236.555 194.641 233.985 194.641ZM203.711 199.045C205.528 197.228 209.357 197.305 213.326 198.773C213.504 196.8 209.963 194.633 206.429 194.633C203.858 194.633 202.584 195.503 202.584 196.762C202.584 197.569 202.856 198.276 203.711 199.045ZM263.358 166.402C256.523 166.891 250.597 169.237 245.79 173.143C247.744 167.582 250.404 162.293 253.704 157.408C245.005 158.332 237.728 161.517 232.424 166.953L228.261 156.057L237.487 147.918L225.139 147.04L220.207 135.553L215.275 147.048L202.926 147.918L212.145 156.065L207.998 166.953C202.685 161.517 195.416 158.332 186.717 157.408C190.008 162.296 192.663 167.584 194.616 173.143C189.816 169.237 183.882 166.891 177.048 166.402C181.149 171.675 184.783 177.291 187.471 183.333C187.781 184.017 188.434 184.242 189.133 183.885C198.786 179.089 209.42 176.6 220.199 176.615C231.367 176.615 241.907 179.24 251.273 183.885C251.98 184.242 252.632 184.017 252.935 183.341C255.63 177.291 259.265 171.675 263.366 166.41L263.358 166.402ZM278.285 207.596C291.69 202.952 300.498 216.256 310.827 213.157C300.801 202.501 292.646 190.385 293.725 176.429C293.787 175.613 293.05 175.147 292.351 175.636C287.248 179.178 283.66 185.05 282.565 191.651C275.466 187.092 267.156 186.448 260.29 189.251C267.366 194.207 273.466 200.426 278.285 207.596V207.596Z" fill="#2C623F"/>
</svg>
