<svg width="50" height="80" viewBox="0 0 443 591" fill="none" xmlns="http://www.w3.org/2000/svg"><path d="M442.988 222.069c0 101.087-134.973 281.055-194.153 355.309-14.19 17.697-40.492 17.697-54.682 0C133.935 503.124 0 323.156 0 222.069 0 99.422 99.165 0 221.494 0c122.283 0 221.494 99.422 221.494 222.069z" fill="#2C623F"/><circle cx="219.816" cy="219.816" r="145.985" fill="#fff"/><path d="M229.581 170.309c-.815-.148-4.753-.808-9.374-.808s-8.559.66-9.375.808c-.465.077-.652-.373-.295-.645.327-.233 9.67-7.347 9.67-7.347l9.661 7.347c.365.272.187.73-.287.645zm-16.139 46.172s-.497.179-.621.613c1.957 1.499 3.301 4.924 7.386 4.924s5.436-3.417 7.386-4.931c-.124-.435-.622-.606-.622-.606s-2.563.598-6.764.598c-4.21 0-6.765-.598-6.765-.598zm6.765-5.763c-1.134 0-1.383-.427-2.159-.427-.73 0-2.167.59-2.478 1.134.02.276.135.537.326.738 1.647.24 2.4 1.165 4.311 1.165 1.918 0 2.664-.925 4.318-1.165.186-.204.298-.463.318-.738-.31-.544-1.739-1.126-2.477-1.134-.777 0-1.025.427-2.159.427zm93.098 17.63a93.53 93.53 0 0 1-.59 6.625c-10.563 1.748-14.33-7.658-25.141-7.184a69.57 69.57 0 0 1 1.577 7.013c8.916 0 12.504 8.334 22.43 7.107a90.688 90.688 0 0 1-1.88 7.533c-7.844.777-10.601-7.021-19.68-6.803.077 1.289.116 2.594.116 3.914l-.039 2.175 17.63 6.726a93.303 93.303 0 0 1-3.083 7.362c-5.297-.287-7.122-7.083-15.184-6.547a70.647 70.647 0 0 1-.916 5.165c6.998-.489 8.504 5.957 13.514 6.477a95.127 95.127 0 0 1-4.117 6.812c-2.966-1.593-5.545-6.392-11.183-6.688a67.16 67.16 0 0 0 1.522-5.436c-5.002 0-10.718-1.942-15.502-6.307 1.553-8.854-12.178-17.855-12.178-24.332 0-7.037 3.557-10.928 3.557-20.411 0-7.044-3.417-14.679-8.574-19.898a17.255 17.255 0 0 0-3.193-2.563c4.738 5.856 8.373 12.807 8.373 20.853 0 8.932-4.155 13.646-4.155 21.894 0 8.241 12.061 15.378 12.061 23.875 0 3.34-1.072 6.601-4.598 13.024 5.414 5.406 12.466 8.357 17.009 8.357 1.476 0 2.276-.45 2.804-1.607a71.179 71.179 0 0 0 1.297-3.037c4.893.186 7.145 4.637 9.856 6.415a91.241 91.241 0 0 1-4.691 5.794c-1.818-2.012-4.264-5.398-7.844-6.338a72.35 72.35 0 0 1-2.02 3.674c3.076.839 5.181 3.945 6.811 5.988a93.816 93.816 0 0 1-5.49 5.25c-1.189-1.856-3.045-4.201-5.126-5.467a65.018 65.018 0 0 1-2.385 3.029c1.763 1.203 3.324 3.355 4.342 5.11a94.418 94.418 0 0 1-6.835 5.009c-1.165-9.475-14.088-15.96-10.601-26.95-1.142 1.942-2.509 4.357-2.509 7.278 0 7.953 8.466 14.259 9.149 22.165a97.545 97.545 0 0 1-5.382 2.975c-.311-8.691-9.273-18.197-9.273-25.319 0-7.961 10.422-15.96 10.422-25.35 0-9.398-12.03-15.914-12.03-24.162s5.118-12.993 5.118-23.572c0-7.743-3.681-15.579-9.366-20.581a15.479 15.479 0 0 0-3.185-2.221c5.359 6.431 8.466 12.271 8.466 21.117 0 9.941-5.864 15.456-5.864 25.195s11.805 15.145 11.805 24.232c0 9.071-10.989 16.713-10.989 26.041 0 8.481 9.685 16.947 9.832 27.004a91.116 91.116 0 0 1-6.469 2.532c1.234-10.166-9.67-20.651-9.67-28.946 0-9.063 11.394-16.861 11.394-26.639 0-9.786-11.58-14.329-11.58-24.372 0-10.034 7.106-15.587 7.106-26.678a27.026 27.026 0 0 0-10.5-21.234l-.396-.295c-.591-.435-1.072.086-.653.606 4.412 5.514 6.773 11.083 6.773 19.339 0 10.135-8.171 18.376-8.171 28.208 0 11.596 10.967 14.912 10.967 24.426 0 9.514-11.759 17.125-11.759 27.222 0 9.366 11.13 19.766 9.219 30.577a90.432 90.432 0 0 1-6.788 1.491c2.089-13.459-8.831-23.129-8.831-31.936 0-9.538 12.178-18.034 12.178-27.354 0-8.784-8.737-11.658-9.886-20.651-.156-1.228-1.142-2.136-2.501-1.911-1.779.326-4.054 1.491-7.627 1.491-3.573 0-5.848-1.165-7.627-1.491-1.351-.225-2.338.683-2.493 1.911-1.149 8.993-9.894 11.859-9.894 20.659 0 9.312 12.178 17.808 12.178 27.338 0 8.815-10.913 18.485-8.831 31.944a94.157 94.157 0 0 1-6.788-1.491c-1.911-10.811 9.219-21.203 9.219-30.577 0-10.097-11.759-17.708-11.759-27.222 0-9.514 10.967-12.83 10.967-24.426 0-9.832-8.171-18.065-8.171-28.216 0-8.248 2.361-13.825 6.78-19.339.412-.512-.069-1.033-.66-.598l-.388.295a27.006 27.006 0 0 0-10.493 21.219c0 11.09 7.107 16.643 7.107 26.686 0 10.034-11.588 14.585-11.588 24.371 0 9.771 11.394 17.568 11.394 26.64 0 8.294-10.897 18.779-9.662 28.946a92.907 92.907 0 0 1-6.47-2.532c.148-10.066 9.825-18.531 9.825-27.013 0-9.319-10.982-16.969-10.982-26.041 0-9.079 11.798-14.492 11.798-24.232 0-9.731-5.856-15.253-5.856-25.194 0-8.854 3.106-14.679 8.465-21.11a15.098 15.098 0 0 0-3.184 2.214 28.214 28.214 0 0 0-9.367 20.581c0 10.578 5.119 15.323 5.119 23.572 0 8.255-12.031 14.756-12.031 24.161 0 9.398 10.423 17.398 10.423 25.351 0 7.129-8.971 16.636-9.273 25.319a92.687 92.687 0 0 1-5.383-2.975c.676-7.899 9.149-14.213 9.149-22.166 0-2.912-1.367-5.336-2.508-7.269 3.479 10.982-9.444 17.474-10.609 26.942a93.774 93.774 0 0 1-6.835-5.01c1.017-1.747 2.578-3.906 4.349-5.102-.829-.987-1.627-2-2.392-3.037-2.081 1.266-3.937 3.619-5.126 5.468a95.349 95.349 0 0 1-5.491-5.243c1.631-2.05 3.744-5.157 6.819-5.995a70.934 70.934 0 0 1-2.027-3.674c-3.572.947-6.027 4.334-7.844 6.345a93.976 93.976 0 0 1-4.683-5.794c2.718-1.786 4.955-6.236 9.856-6.423a67.564 67.564 0 0 0 1.297 3.029c.528 1.165 1.32 1.616 2.796 1.616 4.551 0 11.595-2.952 17.008-8.357-3.518-6.415-4.582-9.677-4.582-13.025 0-8.496 12.054-15.626 12.054-23.874 0-8.24-4.155-12.955-4.155-21.886 0-8.054 3.634-14.998 8.372-20.861a17.178 17.178 0 0 0-3.2 2.563c-5.149 5.234-8.574 12.869-8.574 19.905 0 9.483 3.565 13.382 3.565 20.419 0 6.477-13.732 15.479-12.178 24.325-4.792 4.364-10.508 6.314-15.51 6.314a72.448 72.448 0 0 0 1.514 5.436c-5.63.296-8.201 5.095-11.184 6.68a94.368 94.368 0 0 1-4.116-6.804c5.017-.528 6.524-6.966 13.53-6.477a70.652 70.652 0 0 1-.917-5.165c-8.062-.544-9.894 6.26-15.191 6.547a93.398 93.398 0 0 1-3.076-7.362l17.623-6.734-.039-2.175c0-1.32.039-2.625.108-3.922-9.071-.209-11.836 7.58-19.68 6.812a94.268 94.268 0 0 1-1.872-7.534c9.91 1.219 13.514-7.114 22.43-7.106a67.846 67.846 0 0 1 1.569-7.021c-10.811-.466-14.586 8.931-25.133 7.184a91.037 91.037 0 0 1-.59-6.618c12.271 1.367 16.861-8.714 28.037-7.479a65.468 65.468 0 0 1 3.651-7.743c-14.004-2.462-18.757 9.25-31.789 7.456C128.414 170.309 169.6 130 220.207 130c50.607 0 91.793 40.309 93.199 90.582-13.04 1.802-17.786-9.911-31.789-7.456a65.71 65.71 0 0 1 3.65 7.743c11.169-1.235 15.767 8.854 28.038 7.479zm-133.174-39.105c-6.865-2.803-15.176-2.159-22.274 2.408-1.103-6.609-4.684-12.481-9.786-16.015-.707-.489-1.437-.031-1.375.793 1.08 13.948-7.083 26.064-17.11 36.72 10.338 3.107 19.137-10.205 32.542-5.561a70.2 70.2 0 0 1 18.003-18.345zm40.076-8.442c-8.652 0-15.906 4.893-17.801 11.223-.156.481.046.8.606.544 1.553-.699 3.331-1.033 5.258-1.033 3.526 0 6.64 1.297 8.481 3.549.807 2.687.877 6.578-.039 8.792-1.453-.326-1.981-1.445-3.402-1.445-1.413 0-2.516.994-4.924.994-2.408 0-2.687-1.134-4.272-1.134-1.864 0-2.205 1.919-2.205 4.078 0 9.646 8.869 22.911 18.298 22.911 9.421 0 18.282-13.265 18.282-22.911 0-2.167-.442-4.016-2.384-4.272a5.878 5.878 0 0 1-4.085 1.328c-2.408 0-3.068-.994-4.489-.994-1.709 0-1.538 3.612-3.573 3.806-1.359-3.254-1.421-7.433-.295-11.153 1.841-2.252 4.947-3.549 8.481-3.549 1.926 0 3.705.341 5.25 1.033.559.256.754-.063.614-.544-1.895-6.322-9.149-11.223-17.801-11.223zm13.778 13.84c-2.074 0-4.505.637-6.035 2.338-.166.53-.144 1.1.062 1.615 3.767-1.289 7.083-1.343 8.691.451.854-.777 1.126-1.476 1.126-2.283 0-1.251-1.274-2.121-3.844-2.121zm-30.274 4.404c1.817-1.817 5.646-1.74 9.615-.272.178-1.973-3.363-4.14-6.897-4.14-2.571 0-3.845.87-3.845 2.129 0 .807.272 1.514 1.127 2.283zm59.647-32.643c-6.835.489-12.761 2.835-17.568 6.741a68.936 68.936 0 0 1 7.914-15.735c-8.699.924-15.976 4.109-21.28 9.545l-4.163-10.896 9.226-8.139-12.348-.878-4.932-11.487-4.932 11.495-12.349.87 9.219 8.147-4.147 10.888c-5.313-5.436-12.582-8.621-21.281-9.545a69.312 69.312 0 0 1 7.899 15.735c-4.8-3.906-10.734-6.252-17.568-6.741 4.101 5.273 7.735 10.889 10.423 16.931.31.684.963.909 1.662.552a69.6 69.6 0 0 1 31.066-7.27 69.72 69.72 0 0 1 31.074 7.27c.707.357 1.359.132 1.662-.544 2.695-6.05 6.33-11.666 10.431-16.931l-.008-.008zm14.927 41.194c13.405-4.644 22.213 8.66 32.542 5.561-10.026-10.656-18.181-22.772-17.102-36.728.062-.816-.675-1.282-1.374-.793-5.103 3.542-8.691 9.414-9.786 16.015-7.099-4.559-15.409-5.203-22.275-2.4a70.215 70.215 0 0 1 17.995 18.345z" fill="#2C623F"/></svg>